ply
format ascii 1.0
comment : MagicaVoxel @ Ephtracy
element vertex 240
property float x
property float y
property float z
property uchar red
property uchar green
property uchar blue
element face 60
property list uchar int vertex_index
end_header
0.9 -0.2 1.9 170 99 57
0.9 -0.2 2 170 99 57
0.9 -0.1 2 170 99 57
0.9 -0.1 1.9 170 99 57
0.9 -0.1 1.9 170 99 57
0.9 -0.1 2 170 99 57
0.9 0 2 170 99 57
0.9 0 1.9 170 99 57
0.9 0 1.9 170 99 57
0.9 0 2 170 99 57
0.9 0.1 2 170 99 57
0.9 0.1 1.9 170 99 57
0.9 -0.2 2 170 99 57
0.9 -0.2 2.1 170 99 57
0.9 -0.1 2.1 170 99 57
0.9 -0.1 2 170 99 57
0.9 -0.1 2 170 99 57
0.9 -0.1 2.1 170 99 57
0.9 0 2.1 170 99 57
0.9 0 2 170 99 57
0.9 0 2 170 99 57
0.9 0 2.1 170 99 57
0.9 0.1 2.1 170 99 57
0.9 0.1 2 170 99 57
0.4 -0.2 1.9 120 21 38
0.4 -0.1 1.9 120 21 38
0.4 -0.1 2 120 21 38
0.4 -0.2 2 120 21 38
0.4 -0.1 1.9 120 21 38
0.4 0 1.9 120 21 38
0.4 0 2 120 21 38
0.4 -0.1 2 120 21 38
0.4 0 1.9 120 21 38
0.4 0.1 1.9 120 21 38
0.4 0.1 2 120 21 38
0.4 0 2 120 21 38
0.5 -0.2 2 120 21 38
0.5 -0.1 2 120 21 38
0.5 -0.1 2.1 120 21 38
0.5 -0.2 2.1 120 21 38
0.5 -0.1 2 120 21 38
0.5 0 2 120 21 38
0.5 0 2.1 120 21 38
0.5 -0.1 2.1 120 21 38
0.5 0 2 120 21 38
0.5 0.1 2 120 21 38
0.5 0.1 2.1 120 21 38
0.5 0 2.1 120 21 38
0.5 -0.2 1.9 120 21 38
0.4 -0.2 1.9 120 21 38
0.4 -0.2 2 120 21 38
0.5 -0.2 2 120 21 38
0.6 -0.2 1.9 120 21 38
0.5 -0.2 1.9 120 21 38
0.5 -0.2 2 120 21 38
0.6 -0.2 2 120 21 38
0.7 -0.2 1.9 120 21 38
0.6 -0.2 1.9 120 21 38
0.6 -0.2 2 120 21 38
0.7 -0.2 2 120 21 38
0.8 -0.2 1.9 120 21 38
0.7 -0.2 1.9 120 21 38
0.7 -0.2 2 120 21 38
0.8 -0.2 2 120 21 38
0.9 -0.2 1.9 170 99 57
0.8 -0.2 1.9 170 99 57
0.8 -0.2 2 170 99 57
0.9 -0.2 2 170 99 57
0.6 -0.2 2 120 21 38
0.5 -0.2 2 120 21 38
0.5 -0.2 2.1 120 21 38
0.6 -0.2 2.1 120 21 38
0.7 -0.2 2 120 21 38
0.6 -0.2 2 120 21 38
0.6 -0.2 2.1 120 21 38
0.7 -0.2 2.1 120 21 38
0.8 -0.2 2 120 21 38
0.7 -0.2 2 120 21 38
0.7 -0.2 2.1 120 21 38
0.8 -0.2 2.1 120 21 38
0.9 -0.2 2 170 99 57
0.8 -0.2 2 170 99 57
0.8 -0.2 2.1 170 99 57
0.9 -0.2 2.1 170 99 57
0.5 0.1 1.9 120 21 38
0.5 0.1 2 120 21 38
0.4 0.1 2 120 21 38
0.4 0.1 1.9 120 21 38
0.6 0.1 1.9 120 21 38
0.6 0.1 2 120 21 38
0.5 0.1 2 120 21 38
0.5 0.1 1.9 120 21 38
0.7 0.1 1.9 120 21 38
0.7 0.1 2 120 21 38
0.6 0.1 2 120 21 38
0.6 0.1 1.9 120 21 38
0.8 0.1 1.9 120 21 38
0.8 0.1 2 120 21 38
0.7 0.1 2 120 21 38
0.7 0.1 1.9 120 21 38
0.9 0.1 1.9 170 99 57
0.9 0.1 2 170 99 57
0.8 0.1 2 170 99 57
0.8 0.1 1.9 170 99 57
0.6 0.1 2 120 21 38
0.6 0.1 2.1 120 21 38
0.5 0.1 2.1 120 21 38
0.5 0.1 2 120 21 38
0.7 0.1 2 120 21 38
0.7 0.1 2.1 120 21 38
0.6 0.1 2.1 120 21 38
0.6 0.1 2 120 21 38
0.8 0.1 2 120 21 38
0.8 0.1 2.1 120 21 38
0.7 0.1 2.1 120 21 38
0.7 0.1 2 120 21 38
0.9 0.1 2 170 99 57
0.9 0.1 2.1 170 99 57
0.8 0.1 2.1 170 99 57
0.8 0.1 2 170 99 57
0.5 -0.2 1.9 120 21 38
0.5 -0.1 1.9 120 21 38
0.4 -0.1 1.9 120 21 38
0.4 -0.2 1.9 120 21 38
0.6 -0.2 1.9 120 21 38
0.6 -0.1 1.9 120 21 38
0.5 -0.1 1.9 120 21 38
0.5 -0.2 1.9 120 21 38
0.7 -0.2 1.9 120 21 38
0.7 -0.1 1.9 120 21 38
0.6 -0.1 1.9 120 21 38
0.6 -0.2 1.9 120 21 38
0.8 -0.2 1.9 120 21 38
0.8 -0.1 1.9 120 21 38
0.7 -0.1 1.9 120 21 38
0.7 -0.2 1.9 120 21 38
0.9 -0.2 1.9 170 99 57
0.9 -0.1 1.9 170 99 57
0.8 -0.1 1.9 170 99 57
0.8 -0.2 1.9 170 99 57
0.5 -0.1 1.9 120 21 38
0.5 0 1.9 120 21 38
0.4 0 1.9 120 21 38
0.4 -0.1 1.9 120 21 38
0.6 -0.1 1.9 120 21 38
0.6 0 1.9 120 21 38
0.5 0 1.9 120 21 38
0.5 -0.1 1.9 120 21 38
0.7 -0.1 1.9 120 21 38
0.7 0 1.9 120 21 38
0.6 0 1.9 120 21 38
0.6 -0.1 1.9 120 21 38
0.8 -0.1 1.9 120 21 38
0.8 0 1.9 120 21 38
0.7 0 1.9 120 21 38
0.7 -0.1 1.9 120 21 38
0.9 -0.1 1.9 170 99 57
0.9 0 1.9 170 99 57
0.8 0 1.9 170 99 57
0.8 -0.1 1.9 170 99 57
0.5 0 1.9 120 21 38
0.5 0.1 1.9 120 21 38
0.4 0.1 1.9 120 21 38
0.4 0 1.9 120 21 38
0.6 0 1.9 120 21 38
0.6 0.1 1.9 120 21 38
0.5 0.1 1.9 120 21 38
0.5 0 1.9 120 21 38
0.7 0 1.9 120 21 38
0.7 0.1 1.9 120 21 38
0.6 0.1 1.9 120 21 38
0.6 0 1.9 120 21 38
0.8 0 1.9 120 21 38
0.8 0.1 1.9 120 21 38
0.7 0.1 1.9 120 21 38
0.7 0 1.9 120 21 38
0.9 0 1.9 170 99 57
0.9 0.1 1.9 170 99 57
0.8 0.1 1.9 170 99 57
0.8 0 1.9 170 99 57
0.5 -0.2 2 120 21 38
0.4 -0.2 2 120 21 38
0.4 -0.1 2 120 21 38
0.5 -0.1 2 120 21 38
0.5 -0.1 2 120 21 38
0.4 -0.1 2 120 21 38
0.4 0 2 120 21 38
0.5 0 2 120 21 38
0.5 0 2 120 21 38
0.4 0 2 120 21 38
0.4 0.1 2 120 21 38
0.5 0.1 2 120 21 38
0.6 -0.2 2.1 120 21 38
0.5 -0.2 2.1 120 21 38
0.5 -0.1 2.1 120 21 38
0.6 -0.1 2.1 120 21 38
0.7 -0.2 2.1 120 21 38
0.6 -0.2 2.1 120 21 38
0.6 -0.1 2.1 120 21 38
0.7 -0.1 2.1 120 21 38
0.8 -0.2 2.1 120 21 38
0.7 -0.2 2.1 120 21 38
0.7 -0.1 2.1 120 21 38
0.8 -0.1 2.1 120 21 38
0.9 -0.2 2.1 170 99 57
0.8 -0.2 2.1 170 99 57
0.8 -0.1 2.1 170 99 57
0.9 -0.1 2.1 170 99 57
0.6 -0.1 2.1 120 21 38
0.5 -0.1 2.1 120 21 38
0.5 0 2.1 120 21 38
0.6 0 2.1 120 21 38
0.7 -0.1 2.1 120 21 38
0.6 -0.1 2.1 120 21 38
0.6 0 2.1 120 21 38
0.7 0 2.1 120 21 38
0.8 -0.1 2.1 120 21 38
0.7 -0.1 2.1 120 21 38
0.7 0 2.1 120 21 38
0.8 0 2.1 120 21 38
0.9 -0.1 2.1 170 99 57
0.8 -0.1 2.1 170 99 57
0.8 0 2.1 170 99 57
0.9 0 2.1 170 99 57
0.6 0 2.1 120 21 38
0.5 0 2.1 120 21 38
0.5 0.1 2.1 120 21 38
0.6 0.1 2.1 120 21 38
0.7 0 2.1 120 21 38
0.6 0 2.1 120 21 38
0.6 0.1 2.1 120 21 38
0.7 0.1 2.1 120 21 38
0.8 0 2.1 120 21 38
0.7 0 2.1 120 21 38
0.7 0.1 2.1 120 21 38
0.8 0.1 2.1 120 21 38
0.9 0 2.1 170 99 57
0.8 0 2.1 170 99 57
0.8 0.1 2.1 170 99 57
0.9 0.1 2.1 170 99 57
4 3 2 1 0
4 7 6 5 4
4 11 10 9 8
4 15 14 13 12
4 19 18 17 16
4 23 22 21 20
4 27 26 25 24
4 31 30 29 28
4 35 34 33 32
4 39 38 37 36
4 43 42 41 40
4 47 46 45 44
4 51 50 49 48
4 55 54 53 52
4 59 58 57 56
4 63 62 61 60
4 67 66 65 64
4 71 70 69 68
4 75 74 73 72
4 79 78 77 76
4 83 82 81 80
4 87 86 85 84
4 91 90 89 88
4 95 94 93 92
4 99 98 97 96
4 103 102 101 100
4 107 106 105 104
4 111 110 109 108
4 115 114 113 112
4 119 118 117 116
4 123 122 121 120
4 127 126 125 124
4 131 130 129 128
4 135 134 133 132
4 139 138 137 136
4 143 142 141 140
4 147 146 145 144
4 151 150 149 148
4 155 154 153 152
4 159 158 157 156
4 163 162 161 160
4 167 166 165 164
4 171 170 169 168
4 175 174 173 172
4 179 178 177 176
4 183 182 181 180
4 187 186 185 184
4 191 190 189 188
4 195 194 193 192
4 199 198 197 196
4 203 202 201 200
4 207 206 205 204
4 211 210 209 208
4 215 214 213 212
4 219 218 217 216
4 223 222 221 220
4 227 226 225 224
4 231 230 229 228
4 235 234 233 232
4 239 238 237 236
